<?xml version="1.0" standalone="no"?>
<!DOCTYPE svg PUBLIC "-//W3C//DTD SVG 20010904//EN"
 "http://www.w3.org/TR/2001/REC-SVG-20010904/DTD/svg10.dtd">
<svg version="1.0" xmlns="http://www.w3.org/2000/svg"
 width="1600.000000pt" height="1600.000000pt" viewBox="0 0 1600.000000 1600.000000"
 preserveAspectRatio="xMidYMid meet">
<metadata>
Created by potrace 1.11, written by Peter Selinger 2001-2013
</metadata>
<g transform="translate(0.000000,1600.000000) scale(0.100000,-0.100000)"
fill="#000000" stroke="none">
<path d="M10690 15591 c-14 -5 -1903 -750 -4198 -1655 -2492 -983 -4190 -1658
-4216 -1676 -54 -36 -101 -98 -120 -159 -25 -76 -1356 -7403 -1356 -7463 0
-44 7 -70 33 -120 29 -56 98 -126 618 -626 l586 -563 -18 -37 c-21 -41 -25
-124 -8 -169 25 -68 110 -122 189 -123 25 0 69 7 98 14 l52 14 298 -285 c451
-433 419 -399 399 -420 -91 -102 -39 -278 94 -313 55 -15 73 -10 77 22 3 28
11 33 77 43 l41 6 838 -805 c949 -913 899 -871 1052 -871 75 0 87 3 160 40
l79 40 4844 5345 c3268 3606 4850 5360 4864 5390 17 35 22 64 22 125 -1 149
33 110 -758 870 -384 369 -720 693 -748 721 l-50 50 -30 149 c-35 173 -50 209
-108 250 -38 27 -51 30 -115 30 -63 0 -77 -3 -107 -26 l-35 -27 -422 405
c-406 390 -422 407 -422 442 0 21 -12 60 -26 88 -20 42 -35 57 -77 77 -30 15
-68 26 -92 26 -41 0 -47 5 -629 565 -658 632 -646 623 -787 630 -41 3 -85 1
-99 -4z m48 -199 c-8 -21 -9713 -10633 -9715 -10625 -6 17 1316 7267 1329
7292 7 13 24 32 38 43 21 15 8317 3294 8343 3297 5 1 7 -3 5 -7z m735 -603
l532 -512 -3 -46 c-22 -344 -218 -803 -508 -1187 -291 -386 -676 -678 -1139
-864 -557 -223 -871 -465 -1105 -850 -29 -47 -116 -215 -195 -375 -79 -159
-171 -336 -205 -393 -100 -168 -233 -335 -395 -498 -219 -219 -433 -384 -760
-587 -316 -195 -434 -291 -591 -479 -146 -175 -257 -359 -497 -823 -88 -170
-196 -373 -239 -450 -442 -776 -991 -1266 -1960 -1751 -256 -128 -415 -241
-583 -415 -217 -224 -366 -476 -524 -879 -33 -85 -89 -230 -124 -321 -147
-377 -274 -573 -467 -718 -99 -74 -250 -151 -381 -192 l-99 -32 -108 104 c-59
57 -319 308 -579 557 l-472 454 172 188 c95 103 2312 2526 4927 5384 2615
2857 4759 5196 4763 5196 4 0 247 -230 540 -511z m1402 -1347 c387 -373 350
-319 380 -557 33 -260 6 -516 -74 -718 -134 -336 -339 -572 -1046 -1207 -869
-779 -1347 -1331 -1768 -2038 -215 -361 -349 -632 -556 -1122 -106 -253 -226
-433 -415 -629 -206 -212 -392 -350 -896 -666 -683 -429 -958 -633 -1270 -945
-358 -357 -672 -810 -881 -1269 -192 -423 -316 -638 -487 -842 -189 -225 -423
-406 -712 -549 -357 -178 -728 -277 -1643 -440 l-239 -43 -91 90 c-51 49 -208
201 -349 337 -142 137 -258 251 -258 255 0 3 44 26 97 51 266 123 497 332 664
600 81 130 177 339 289 630 285 741 485 989 1005 1252 994 503 1602 1046 2075
1858 40 69 157 289 260 490 201 391 232 448 321 581 145 216 291 356 510 489
588 354 1017 727 1292 1122 109 156 183 289 334 597 81 167 173 339 210 395
179 268 436 456 863 631 440 179 755 389 1071 711 272 279 489 601 642 954 56
128 125 324 147 418 l12 52 87 -79 c47 -44 239 -228 426 -409z m1476 -1419
c656 -630 649 -623 634 -692 -4 -19 -1432 -1602 -4562 -5057 -2506 -2766
-4683 -5169 -4839 -5341 -244 -269 -289 -314 -324 -324 -83 -25 -53 -50 -894
757 -427 410 -776 749 -776 753 0 4 78 19 173 35 755 122 1229 259 1627 467
232 122 417 257 609 444 273 266 461 550 661 1000 271 609 606 1064 1068 1451
231 193 430 330 932 644 561 350 741 481 971 710 278 276 393 453 594 915 208
476 474 958 738 1335 411 586 781 981 1612 1720 268 239 484 452 609 600 301
359 455 721 473 1113 l6 128 30 -28 c17 -15 313 -299 658 -630z"/>
<path d="M6541 12785 c-88 -28 -152 -131 -135 -219 19 -103 108 -172 213 -164
64 5 104 27 149 85 24 32 27 45 27 108 0 61 -4 77 -28 113 -47 72 -142 104
-226 77z"/>
<path d="M4941 11985 c-88 -28 -152 -131 -135 -219 10 -58 57 -121 106 -145
90 -43 186 -20 252 62 28 35 31 45 31 111 0 62 -4 78 -28 114 -47 72 -142 104
-226 77z"/>
<path d="M3339 10785 c-62 -20 -112 -76 -128 -142 -46 -191 182 -322 327 -189
95 86 75 258 -37 316 -54 27 -108 32 -162 15z"/>
<path d="M4541 10385 c-88 -28 -152 -131 -135 -219 10 -58 57 -121 106 -145
90 -43 186 -20 252 62 28 35 31 45 31 111 0 62 -4 78 -28 114 -47 72 -142 104
-226 77z"/>
<path d="M2939 8785 c-62 -20 -112 -76 -128 -142 -46 -191 182 -322 327 -189
93 84 78 242 -29 308 -55 34 -111 42 -170 23z"/>
</g>
</svg>
